<svg version="1.1" xmlns:xlink="http://www.w3.org/1999/xlink" xmlns="http://www.w3.org/2000/svg" width="1600" height="900">
<line x1="1147" y1="836" x2="688" y2="777" style="stroke:rgb(255,0,0);stroke-width:1" />
<line x1="688" y1="777" x2="844" y2="908" style="stroke:rgb(255,0,0);stroke-width:1" />
<line x1="844" y1="908" x2="1147" y2="836" style="stroke:rgb(255,0,0);stroke-width:1" />
<line x1="688" y1="777" x2="964" y2="998" style="stroke:rgb(255,0,0);stroke-width:1" />
<line x1="964" y1="998" x2="692" y2="1069" style="stroke:rgb(255,0,0);stroke-width:1" />
<line x1="692" y1="1069" x2="688" y2="777" style="stroke:rgb(255,0,0);stroke-width:1" />
<line x1="969" y1="718" x2="1135" y2="1140" style="stroke:rgb(255,0,0);stroke-width:1" />
<line x1="1135" y1="1140" x2="964" y2="998" style="stroke:rgb(255,0,0);stroke-width:1" />
<line x1="964" y1="998" x2="969" y2="718" style="stroke:rgb(255,0,0);stroke-width:1" />
<line x1="843" y1="1228" x2="964" y2="998" style="stroke:rgb(255,0,0);stroke-width:1" />
<line x1="964" y1="998" x2="1135" y2="1140" style="stroke:rgb(255,0,0);stroke-width:1" />
<line x1="1135" y1="1140" x2="843" y2="1228" style="stroke:rgb(255,0,0);stroke-width:1" />
<line x1="844" y1="908" x2="692" y2="1069" style="stroke:rgb(255,0,0);stroke-width:1" />
<line x1="692" y1="1069" x2="843" y2="1228" style="stroke:rgb(255,0,0);stroke-width:1" />
<line x1="843" y1="1228" x2="844" y2="908" style="stroke:rgb(255,0,0);stroke-width:1" />
<line x1="1147" y1="836" x2="843" y2="1228" style="stroke:rgb(255,0,0);stroke-width:1" />
<line x1="843" y1="1228" x2="1135" y2="1140" style="stroke:rgb(255,0,0);stroke-width:1" />
<line x1="1135" y1="1140" x2="1147" y2="836" style="stroke:rgb(255,0,0);stroke-width:1" />
<line x1="1147" y1="836" x2="969" y2="718" style="stroke:rgb(0,0,0);stroke-width:1" />
<line x1="969" y1="718" x2="688" y2="777" style="stroke:rgb(0,0,0);stroke-width:1" />
<line x1="688" y1="777" x2="1147" y2="836" style="stroke:rgb(0,0,0);stroke-width:1" />
<line x1="688" y1="777" x2="969" y2="718" style="stroke:rgb(255,0,0);stroke-width:1" />
<line x1="969" y1="718" x2="964" y2="998" style="stroke:rgb(255,0,0);stroke-width:1" />
<line x1="964" y1="998" x2="688" y2="777" style="stroke:rgb(255,0,0);stroke-width:1" />
<line x1="969" y1="718" x2="1147" y2="836" style="stroke:rgb(255,0,0);stroke-width:1" />
<line x1="1147" y1="836" x2="1135" y2="1140" style="stroke:rgb(255,0,0);stroke-width:1" />
<line x1="1135" y1="1140" x2="969" y2="718" style="stroke:rgb(255,0,0);stroke-width:1" />
<line x1="843" y1="1228" x2="692" y2="1069" style="stroke:rgb(255,0,0);stroke-width:1" />
<line x1="692" y1="1069" x2="964" y2="998" style="stroke:rgb(255,0,0);stroke-width:1" />
<line x1="964" y1="998" x2="843" y2="1228" style="stroke:rgb(255,0,0);stroke-width:1" />
<line x1="844" y1="908" x2="688" y2="777" style="stroke:rgb(255,0,0);stroke-width:1" />
<line x1="688" y1="777" x2="692" y2="1069" style="stroke:rgb(255,0,0);stroke-width:1" />
<line x1="692" y1="1069" x2="844" y2="908" style="stroke:rgb(255,0,0);stroke-width:1" />
<line x1="1147" y1="836" x2="844" y2="908" style="stroke:rgb(255,0,0);stroke-width:1" />
<line x1="844" y1="908" x2="843" y2="1228" style="stroke:rgb(255,0,0);stroke-width:1" />
<line x1="843" y1="1228" x2="1147" y2="836" style="stroke:rgb(255,0,0);stroke-width:1" />
</svg>
